<svg xmlns="http://www.w3.org/2000/svg" viewBox="0 0 43.81 37.92"><defs><style>.cls-1,.cls-2{fill:#8d7c71;}.cls-1{fill-rule:evenodd;}</style></defs><g id="Layer_2" data-name="Layer 2"><g id="Layer_1-2" data-name="Layer 1"><path class="cls-1" d="M18,25.55l.29-.31L29,14.54V0H0V28.75H9.17v9.17H29V26.37l-7.32,7.32L13,36.54l2.84-8.76ZM2.64,3.18H26.08v.93H2.64Zm0,2.69H26.08V6.8H2.64Zm0,2.69H26.08v.93H2.64Zm0,2.69H26.08v.93H2.64Zm0,2.69H26.08v.93H2.64Zm0,3.82v-.93H19.9v.93Z"/><polygon class="cls-1" points="40.93 13.06 21.18 32.81 14.52 34.98 16.68 28.32 19.04 25.96 19.04 25.95 36.43 8.56 40.93 13.06"/><rect class="cls-2" x="38.71" y="5.95" width="3.34" height="6.36" transform="translate(5.37 31.23) rotate(-45)"/><path class="cls-1" d="M8.29,29.63v8.29L4.15,33.77,0,29.63Z"/></g></g></svg>