<svg xmlns="http://www.w3.org/2000/svg" viewBox="0 0 37.76 32.01"><defs><style>.cls-1{fill:#8d7c71;}</style></defs><g id="Layer_2" data-name="Layer 2"><g id="Layer_1-2" data-name="Layer 1"><path class="cls-1" d="M18.88,0c-1.7,0-6.55,1.77-6.55,9.61,0,6.54,5.11,18.72,6.55,22,1.43-3.29,6.56-15.47,6.56-22C25.44,1.77,20.58,0,18.88,0ZM13.33,9.61c0-7,4.11-8.61,5.55-8.61s5.56,1.58,5.56,8.61c0,5.31-3.55,14.6-5.56,19.45C16.87,24.22,13.33,14.93,13.33,9.61Z"/><path class="cls-1" d="M9.58,17.19C7.45,15.1,5.5,14.48,4,14.48a4.38,4.38,0,0,0-2.95,1c-.89.87-2.46,4.26,1.73,8.36,3.42,3.36,12.32,7,15.14,8.16C16.77,29.25,13,20.55,9.58,17.19ZM1,18.38a3.23,3.23,0,0,1,.74-2.18A3.44,3.44,0,0,1,4,15.48,7.29,7.29,0,0,1,8.88,17.9c2.62,2.58,5.53,8.61,7.14,12.26-3.73-1.58-9.93-4.45-12.55-7A7,7,0,0,1,1,18.38Z"/><path class="cls-1" d="M36.72,15.49a4.38,4.38,0,0,0-2.95-1c-1.51,0-3.45.62-5.59,2.71C24.76,20.55,21,29.25,19.85,32c2.83-1.12,11.72-4.8,15.14-8.16C39.19,19.75,37.61,16.36,36.72,15.49ZM34.3,23.14c-2.64,2.58-8.84,5.44-12.57,7,1.62-3.65,4.52-9.68,7.15-12.26a7.33,7.33,0,0,1,4.89-2.42,3.47,3.47,0,0,1,2.26.73,3.28,3.28,0,0,1,.74,2.17A7,7,0,0,1,34.3,23.14Z"/></g></g></svg>