<svg xmlns="http://www.w3.org/2000/svg" viewBox="0 0 35.82 31.62"><defs><style>.cls-1{fill:#8d7c71;}</style></defs><g id="Layer_2" data-name="Layer 2"><g id="Layer_1-2" data-name="Layer 1"><path class="cls-1" d="M17.91,31.62,17,31.25C13.5,29.83,5.88,26.51,2.77,23.46-1.42,19.36.15,16,1,15.1a4.38,4.38,0,0,1,3-1c1.51,0,3.46.62,5.59,2.71,2.78,2.73,5.79,9,7.43,12.72.13.29.25.56.35.82h0a.69.69,0,0,1,.05.13,2.29,2.29,0,0,1,.1.23c.08.18.14.34.21.49S17.86,31.49,17.91,31.62Z"/><path class="cls-1" d="M33.05,23.46c-3.1,3.05-10.71,6.36-14.21,7.78l-.93.38c0-.09.07-.18.11-.28s.18-.41.28-.64l.16-.37c.05-.13.11-.26.17-.39,1.59-3.67,4.72-10.3,7.61-13.14,2.14-2.09,4.08-2.71,5.59-2.71a4.38,4.38,0,0,1,3,1C35.67,16,37.25,19.36,33.05,23.46Z"/><path class="cls-1" d="M17.91,0c-1.7,0-6.55,1.77-6.55,9.61,0,3,1.09,7.25,2.41,11.25a81.08,81.08,0,0,1,4.14,8.2h0a82.33,82.33,0,0,1,4.14-8.23c1.32-4,2.41-8.21,2.41-11.23C24.47,1.77,19.61,0,17.91,0Zm-.54,30.34h0l.06.13A.69.69,0,0,0,17.37,30.34Z"/><path class="cls-1" d="M17.42,30.47l-.06-.13h0A.69.69,0,0,1,17.42,30.47Z"/><path class="cls-1" d="M22.06,20.84a82.33,82.33,0,0,0-4.14,8.23h0a81.08,81.08,0,0,0-4.14-8.2c-1.32-4-2.41-8.23-2.41-11.25C11.36,1.77,16.21,0,17.91,0s6.56,1.77,6.56,9.61C24.47,12.63,23.38,16.85,22.06,20.84Z"/></g></g></svg>