<svg xmlns="http://www.w3.org/2000/svg" viewBox="0 0 1565.77 1637.56"><defs><style>.cls-1{fill:none;stroke:#000;stroke-miterlimit:10;}</style></defs><g id="Layer_2" data-name="Layer 2"><g id="Layer_1-2" data-name="Layer 1"><path class="cls-1" d="M1037.29,1281.77,999.8,320.82l-475.48,312-169.61,648h62l69-314.58c2.33-10.06,4.35-20.2,5.94-30.41,4.84-31.26,34.28-145.41,213-356.08,0,0,77.44-9.88,137.48,48.49,34.5,33.54,52.8,80.37,51.35,128.46l-15.83,528.12Z"/><path class="cls-1" d="M905.71,1251.7l12-450.91s35-219.09-206-245.09c0,0-169,176-209,314s-92,394-92,394h-38l157-627,454-293,21,904Z"/><polyline class="cls-1" points="999.8 320.82 1124.71 243.71 1204.71 353.2 1211.71 406.7 1130.71 299.7 1001.94 375.74 1038.81 411.88"/><path class="cls-1" d="M1130.71,299.7l-6-56,6-22.33-3-24,1.84-5-1.84-6.67,3-10v-8.16l-5,3.16L1115.55,103l3.66-20.67-.66-2.17,1.33-4.33L1210.05,210,1545.71.7l3,5.5-337,212-93.16-138L481,564.2l-2.75-1.5s489.5-382,641.67-486.83"/><polyline class="cls-1" points="1210.05 210.04 1211.71 218.21 1210.05 234.21 1445.38 1301.7 1341.71 1280.77 1037.3 1281.77"/><polyline class="cls-1" points="1204.71 353.2 1220.38 346.04 1217.71 328.7 1226.44 308.58 1130.71 167.54 461.71 635.71 461.71 640.37 1130.71 175.71 1224.31 313.49"/><polyline class="cls-1" points="1217.71 328.7 1127.71 197.37 465.71 648.37 465.71 643.04 461.71 640.37"/><polyline class="cls-1" points="465.71 648.37 467.71 648.37 464.05 664.71 1130.71 221.37 1220.38 346.04"/><polyline class="cls-1" points="480.96 564.21 484.38 566.71 484.38 570.71 486.05 572.71 468.45 630.99"/><line class="cls-1" x1="464.05" y1="664.7" x2="477.25" y2="670.7"/><polyline class="cls-1" points="524.32 632.8 477.25 663.37 468.45 706.71 511.94 680.1"/><line class="cls-1" x1="468.45" y1="706.7" x2="486.05" y2="717.37"/><path class="cls-1" d="M893.26,765.68C885.82,606.32,725.38,609,725.38,609,551.38,797.7,524.32,955.7,524.32,955.7L455.38,1285h-16s28.67-124,46.67-222.67,46-204,94-283.33S716.71,599.7,716.71,599.7s159.09-2,176.88,149.34"/><path class="cls-1" d="M416.38,1297l-130.67-4s-5.33-6.34,3-10.67L421.05,1285l292.66,26.33s5.67,3.67,0,9.67l-297.33-24s-4.33-8.34,4.67-12"/><path class="cls-1" d="M289.73,1293.16l-23,81.88a16,16,0,0,1-9.33,11.33c-8,3.33-16.67,12.33-16.67,12.33l-3.33,16,140.33,30L716.23,1437v-10s5.48-3.34-5.18-12-8-14-8-14l-2.67-1,8-79.43"/><path class="cls-1" d="M377.71,1444.7l3-19.33,5.67-13s5.67.67,8.33-17.33l1.67-2,21.68-95.87"/><path class="cls-1" d="M1445.38,1301.7l16.67,4.67s16.66,12,0,24.67l-118.67-19.34s12-15.87-1.67-30.93"/><path class="cls-1" d="M858.72,1305.94l-4.67,150.43h-6.37s.37,22.67-21,28-12,20.67-12,20.67l-2,27.33L1413.38,1637l124.67-57.34-6.67-24.66s-8-18.67-21.33-24-10-30.67-10-30.67l-4-2-34-167.33"/><path class="cls-1" d="M1413.38,1637l-7.8-40.67h3.9l-11.43-34s-10.67,5.33-18.67-36.67l-6.67-9.33-29.33-204.67-488-5.8s-17.33-11.53,0-20.86l22.33-.27"/><polyline class="cls-1" points="814.71 1505.04 1405.58 1596.37 1531.38 1555.04"/><polyline class="cls-1" points="240.71 1398.7 380.71 1425.37 716.23 1427.04"/><path class="cls-1" d="M1143.38,1280.77l-4-57.07s88.67-17.33,168.67,0l8,57.15"/><path class="cls-1" d="M1139.38,1223.7l-19.33-15.33s86-26,202.66,0l-14.66,15.33"/><path class="cls-1" d="M1130.53,1205.74l-7.32-84s.82,5.75,3.66,9.25l7.1,66,10.74-2.06-6.5-66s-12.58-16.75-18.16-35.25,0-26.75,0-26.75,8.91,36.75,35.91,55l6.75,71,18.75-1.25-6.5-71s-45.54-38.75-57.39-78.25c0,0-4.86-20.25-2.61-26,0,0,9.25,38.5,90.5,102.25l7.5,72.5h25l-7.5-73.25S1115,1016,1112.21,990.2s-1.25-23.75-1.25-23.75-5.25,23.75,97,102.25c0,0,34.5,25.5,45.5,50l11,73,23.75,2.75-9.5-73.5s-52.75-71-93-97-73-71.25-77.75-81.5-1.75-21.5-1.75-21.5,14.75,36.75,79.25,77,110,130.25,110,130.25L1306,1198l9.5,2-10.75-70.23s-30-86.5-89.5-129S1099.46,915.2,1101.71,876c0,0,24.5,39.5,83,74.25,0,0,66,53,93.25,102.25s26.75,77.25,26.75,77.25"/><path class="cls-1" d="M1101.65,854.7s-.69,16,59.06,54,137.62,129.1,139.34,195.24"/><path class="cls-1" d="M1100.41,839s.3,15.33,58.48,52.13c58.42,36.9,134.57,125.08,137.65,190.88"/><path class="cls-1" d="M1099.18,823.28s1.27,14.66,57.9,50.25c57.08,35.81,131.5,121.07,136,186.53"/><path class="cls-1" d="M1097.94,807.56s2.25,14,57.32,48.38C1211,890.65,1283.71,973,1289.53,1038.12"/><path class="cls-1" d="M1096.71,791.85s3.23,13.33,56.73,46.51c54.42,33.61,125.39,113,132.59,177.82"/><path class="cls-1" d="M1095.47,776.13s4.21,12.67,56.15,44.64c53.09,32.52,122.34,109,130.9,173.47"/><path class="cls-1" d="M1094.24,760.42s5.18,12,55.56,42.76c51.76,31.42,119.29,105,129.22,169.12"/><path class="cls-1" d="M1093,744.7s6.17,11.34,55,40.9c50.44,30.32,116.23,101,127.53,164.76"/><path class="cls-1" d="M1091.77,729s7.14,10.67,54.39,39c49.11,29.22,113.18,97,125.85,160.41"/><path class="cls-1" d="M1090.53,713.28s8.13,10,53.81,37.14c47.78,28.13,110.13,93,124.16,156.06"/><path class="cls-1" d="M1089.3,697.56s9,9.43,53.22,35.28c46.39,27.13,107.07,89,122.48,151.7"/><path class="cls-1" d="M1088.06,681.85s10,8.76,52.65,33.4c45,26,104,85,120.78,147.35"/><path class="cls-1" d="M1086.83,666.13s11,8.1,52.06,31.53c43.71,25,100.95,80.94,119.1,143"/><path class="cls-1" d="M1085.59,650.42s12,7.43,51.48,29.65c42.39,23.85,97.9,76.93,117.41,138.65"/><path class="cls-1" d="M1084.36,634.7s13,6.77,50.89,27.79c41.06,22.75,94.85,72.9,115.73,134.29"/><path class="cls-1" d="M1083.12,619s14,6.09,50.31,25.91c39.73,21.65,91.79,68.89,114,129.94"/><path class="cls-1" d="M1081.89,603.28s14.92,5.42,49.72,24C1170,647.86,1220.35,692.19,1244,752.9"/><path class="cls-1" d="M1080.65,587.56s15.91,4.75,49.14,22.17c37.08,19.44,85.68,60.86,110.67,121.23"/><path class="cls-1" d="M1079.42,571.85s16.89,4.06,48.55,20.29C1163.73,610.47,1210.6,649,1237,709"/><path class="cls-1" d="M1078.18,556.13s17.91,3.33,48,18.42c34.47,17.16,79.58,52.84,107.3,112.53"/><path class="cls-1" d="M1077,540.42s18.89,2.66,47.39,16.55c33.13,16.06,76.51,48.82,105.61,108.17"/><path class="cls-1" d="M1075.71,524.7s94.46,9.5,150.73,118.5"/><path class="cls-1" d="M1197.83,498,1189.21,445s-2-6.58-7-1.91l3.5,25.41"/><path class="cls-1" d="M1088,444.45c0-15.5,13-10.75,13-10.75l4.8,30.25c-11.21-1.5-14,10.92-14,10.92L1088,444.45c-7.25-3-10.5,5-10.5,5l2.75,38c-5.5-2.71-7.25,6.21-7.25,6.21l-2.75-24c-3.25-2-4,1.27-4,1.27l3,35s0,14.25,5,18.75c0,0-5.5,6,1.5,15.25,0,0-5.75,3,0,15.5,0,0-2,9.75,1.75,15.75,0,0-5.75,7,2,15.25,0,0-5.75,6.75,1,17,0,0-6.75,3,.5,14.25a17,17,0,0,0,1,15.5s-4.25,8.25,1,16.5c0,0-6.25,9.5.75,16.5,0,0-6.45,6.25,2.27,17.25,0,0-5.52,6.25,2.73,19,0,0-4.25,4.5,1.25,14.75,0,0-5,4.75.25,14.25,0,0-4.75,5.5.5,13.25,0,0-5,6.25,2,15.75,0,0-2.5,6.75,1.5,15,0,0-2.75,8.5,1.75,16,0,0-4.5,5.25.25,14.75,0,0-4.25,10.25,2.25,17.25,0,0-4.75,8.25,1,15.75,0,0-4.5,10.75.5,15.5,0,0-2.44,15.27,1.75,21.25"/><path class="cls-1" d="M1101,433.7s6-16.5,17.5-5.5l3.5,30s-9.16-3.5-16.2,5.75"/><path class="cls-1" d="M1122,458.2s8-9,20.75-1.75L1139,424.7c9-8.75,14.5,0,14.5,0l6.5,35h13.75L1170,434.45c6-6.75,10.5,0,10.5,0l1.75,8.59"/><path class="cls-1" d="M1118.46,428.2s7-13,20.5-3.5"/><path class="cls-1" d="M1153.46,424.7s14.56-3.35,16.5,9.75"/><path class="cls-1" d="M1077.85,454.76s-10.89.4-7.64,14.92"/><path class="cls-1" d="M1094.71,474.2S1078.93,476,1082.2,490"/><path class="cls-1" d="M1078.21,498.7s-11.5,5-2.5,12.5c0,0,110.84,18.5,147.67,117.5,0,0-7.67-95-145.17-130,0,0-5-10.5,7.5-8.5s101.5,21,132,112.5c0,0-23.5-106-123-128.5,0,0-.5-11,13.5-8.5,0,0,86,26.5,105,113.75,0,0,1-67.75-86.5-121.25,0,0,0-7.75,16,0s61.43,49.18,65.5,89.75c0,0-1.5-45.25-44.5-88,0,0,17.75-.25,22,8.5s17.08,37,17.08,53.64"/><path class="cls-1" d="M1106.21,921s-4.41-19.46-.45-23.73"/><path class="cls-1" d="M1111,966.45s-5.5-13.5-3-24"/><path class="cls-1" d="M1115,1016.45s-5.87-12.31-2.25-23.89"/><path class="cls-1" d="M1120.05,1067s-5.48-13-2.85-26.1"/><path class="cls-1" d="M1123.21,1121.7s-4.28-14.39-1.64-23.44"/><path class="cls-1" d="M1120.05,1208.37l.66-5.67s23.42-14,92.25-11.5,99.5,6.08,111.25,14.54l-1.5,2.63"/><path class="cls-1" d="M1142.71,456.45s9.5-8,19.25,3.25"/><path class="cls-1" d="M1067.67,487.92s-34.19-23.74,10.18-67.1S1195,408.7,1200.21,430.7c0,0,3.2,23.68-7.77,34.09,0,0,22.51-17.09,5.39-48.09,0,0-21.87-37.25-88.12-23.25C1109.71,393.45,1017.12,420.38,1067.67,487.92Z"/><path class="cls-1" d="M1203.75,433s-1.79-17.32,8-26.32c0,0-7-41.25-70.75-41.5,0,0-75.25-2.91-96.25,57.67a26.2,26.2,0,0,0-2.75,16.24s8.24,2.71,10.89,15.65"/><path class="cls-1" d="M1041.64,430.45s-8.51-6-4.35-15.25,7.92-16.5,7.92-16.5l4.25-17s33.25-36.5,85.5-38,78,38.75,79.75,60.25-10.46,31.75-10.46,31.75"/><path class="cls-1" d="M878,698.29a48.75,48.75,0,0,0-27.32-4.59c-167,171.5-170.5,298.86-170.5,298.86l-37.5,288.29-121.5-17.15,60-314.5s5.22-69.53,99-205c0,0,74-102.5,89.5-110,0,0,52.22,1.81,70,14.17"/><polygon class="cls-1" points="555.71 1240.7 574.71 1143.2 639.71 1156.2 628.21 1251.2 555.71 1240.7"/><polygon class="cls-1" points="578.21 1126.2 639.71 1140.7 652.71 1062.7 592.21 1047.7 578.21 1126.2"/><polygon class="cls-1" points="597.71 1031.2 609.21 960.21 666.49 979.32 655.21 1047.7 597.71 1031.2"/><path class="cls-1" d="M612.71,946.7s9.5-53,24-70.75l50,21.27s-15.45,39-20.22,66.48Z"/><path class="cls-1" d="M641.71,862.2s17-42,33.5-58.5l46,20.5s-27.5,43-29,55.5Z"/><polygon class="cls-1" points="686.71 788.21 729.21 806.71 763.71 758.71 721.21 736.21 686.71 788.21"/><path class="cls-1" d="M730.71,722.2l40,23.5s42-62.5,56-70.5a57.86,57.86,0,0,1,26,0s-39.5-25.93-68.5-20.71C784.21,654.49,737.23,706.62,730.71,722.2Z"/><path class="cls-1" d="M711.71,555.7l-7,24c-.68,17.28,12,20,12,20l8.67,9.34c35.71,11.41,44.33,25.16,44.33,25.16,3.95,20.3,14.5,20.29,14.5,20.29l42.5,20.71s10.67,16.17,24,18.5c0,0,33.89,18.53,36.65,31.17,0,0-82.65,100.83-101.31,137.5s-46.67,46-60.67,208.67-24.67,238-24.67,238l-245.33-24"/><path class="cls-1" d="M689.69,597.6s-1.82,16.87,9.93,21.89"/><path class="cls-1" d="M660,634.2s1.25,13.06,13,17.22"/><path class="cls-1" d="M605.79,706.7s-5.19,10,10.53,18.17"/><path class="cls-1" d="M524.65,841.7s2.1,12.61,18.08,13"/><path class="cls-1" d="M513.3,866.72s-4.59,9.65,17.41,13"/><path class="cls-1" d="M470.65,1034.93s-1.79,11.06,19.47,5.92"/><line class="cls-1" x1="437.08" y1="1187.93" x2="459.52" y2="1194.26"/><path class="cls-1" d="M754,582.64s-11.72,11.13,0,21.19"/><path class="cls-1" d="M833.7,638.16s-9-14.87,6-12.33"/><path class="cls-1" d="M507.76,696.05s-13.38,5.32-13.71,13.65"/><path class="cls-1" d="M505.51,704.65s-23.8,6.05-21.46,25.05c0,0,10.35-18,19-15.66"/><path class="cls-1" d="M484.05,729.7,490.71,742s-3.15,10.12.6,16.89"/><path class="cls-1" d="M490.71,742s2.75-5.67,6.54-5.84"/><line class="cls-1" x1="468.45" y1="661.78" x2="471.43" y2="644.47"/><line class="cls-1" x1="472.72" y1="658.94" x2="475.67" y2="641.59"/><line class="cls-1" x1="477" y1="656.09" x2="479.91" y2="638.71"/><line class="cls-1" x1="481.27" y1="653.25" x2="484.15" y2="635.82"/><line class="cls-1" x1="485.54" y1="650.41" x2="488.39" y2="632.94"/><line class="cls-1" x1="489.82" y1="647.57" x2="492.63" y2="630.06"/><line class="cls-1" x1="494.09" y1="644.73" x2="496.87" y2="627.17"/><line class="cls-1" x1="498.36" y1="641.88" x2="501.11" y2="624.29"/><line class="cls-1" x1="502.64" y1="639.04" x2="505.34" y2="621.4"/><line class="cls-1" x1="506.91" y1="636.2" x2="509.58" y2="618.52"/><line class="cls-1" x1="511.18" y1="633.36" x2="513.82" y2="615.64"/><line class="cls-1" x1="515.46" y1="630.52" x2="518.06" y2="612.75"/><line class="cls-1" x1="519.73" y1="627.67" x2="522.3" y2="609.87"/><line class="cls-1" x1="524.01" y1="624.83" x2="526.54" y2="606.99"/><line class="cls-1" x1="528.28" y1="621.99" x2="530.78" y2="604.1"/><line class="cls-1" x1="532.55" y1="619.15" x2="535.01" y2="601.22"/><line class="cls-1" x1="536.83" y1="616.31" x2="539.25" y2="598.33"/><line class="cls-1" x1="541.1" y1="613.46" x2="543.49" y2="595.45"/><line class="cls-1" x1="545.37" y1="610.62" x2="547.73" y2="592.57"/><line class="cls-1" x1="549.65" y1="607.78" x2="551.97" y2="589.68"/><line class="cls-1" x1="553.92" y1="604.94" x2="556.21" y2="586.8"/><line class="cls-1" x1="558.2" y1="602.1" x2="560.45" y2="583.92"/><line class="cls-1" x1="562.47" y1="599.25" x2="564.68" y2="581.03"/><line class="cls-1" x1="566.74" y1="596.41" x2="568.92" y2="578.15"/><line class="cls-1" x1="571.02" y1="593.57" x2="573.16" y2="575.27"/><line class="cls-1" x1="575.29" y1="590.73" x2="577.4" y2="572.38"/><line class="cls-1" x1="579.56" y1="587.89" x2="581.64" y2="569.5"/><line class="cls-1" x1="583.84" y1="585.04" x2="585.88" y2="566.61"/><line class="cls-1" x1="588.11" y1="582.2" x2="590.12" y2="563.73"/><line class="cls-1" x1="592.39" y1="579.36" x2="594.35" y2="560.85"/><line class="cls-1" x1="596.66" y1="576.52" x2="598.59" y2="557.96"/><line class="cls-1" x1="600.93" y1="573.68" x2="602.83" y2="555.08"/><line class="cls-1" x1="605.21" y1="570.83" x2="607.07" y2="552.2"/><line class="cls-1" x1="609.48" y1="567.99" x2="611.31" y2="549.31"/><line class="cls-1" x1="613.75" y1="565.15" x2="615.55" y2="546.43"/><line class="cls-1" x1="618.03" y1="562.31" x2="619.79" y2="543.54"/><line class="cls-1" x1="622.3" y1="559.47" x2="624.02" y2="540.66"/><line class="cls-1" x1="626.57" y1="556.62" x2="628.26" y2="537.78"/><line class="cls-1" x1="630.85" y1="553.78" x2="632.5" y2="534.89"/><line class="cls-1" x1="635.12" y1="550.94" x2="636.74" y2="532.01"/><line class="cls-1" x1="639.4" y1="548.1" x2="640.98" y2="529.13"/><line class="cls-1" x1="643.67" y1="545.26" x2="645.22" y2="526.24"/><line class="cls-1" x1="647.94" y1="542.41" x2="649.46" y2="523.36"/><line class="cls-1" x1="652.22" y1="539.57" x2="653.69" y2="520.48"/><line class="cls-1" x1="656.49" y1="536.73" x2="657.93" y2="517.59"/><line class="cls-1" x1="660.76" y1="533.89" x2="662.17" y2="514.71"/><line class="cls-1" x1="665.04" y1="531.05" x2="666.41" y2="511.82"/><line class="cls-1" x1="669.31" y1="528.2" x2="670.65" y2="508.94"/><line class="cls-1" x1="673.59" y1="525.36" x2="674.89" y2="506.06"/><line class="cls-1" x1="677.86" y1="522.52" x2="679.13" y2="503.17"/><line class="cls-1" x1="682.13" y1="519.68" x2="683.36" y2="500.29"/><line class="cls-1" x1="686.41" y1="516.84" x2="687.6" y2="497.41"/><line class="cls-1" x1="690.68" y1="513.99" x2="691.84" y2="494.52"/><line class="cls-1" x1="694.95" y1="511.15" x2="696.08" y2="491.64"/><line class="cls-1" x1="699.23" y1="508.31" x2="700.32" y2="488.75"/><line class="cls-1" x1="703.5" y1="505.47" x2="704.56" y2="485.87"/><line class="cls-1" x1="707.78" y1="502.63" x2="708.8" y2="482.99"/><line class="cls-1" x1="712.05" y1="499.78" x2="713.04" y2="480.1"/><line class="cls-1" x1="716.32" y1="496.94" x2="717.27" y2="477.22"/><line class="cls-1" x1="720.6" y1="494.1" x2="721.51" y2="474.34"/><line class="cls-1" x1="724.87" y1="491.26" x2="725.75" y2="471.45"/><line class="cls-1" x1="729.14" y1="488.42" x2="729.99" y2="468.57"/><line class="cls-1" x1="733.42" y1="485.57" x2="734.23" y2="465.69"/><line class="cls-1" x1="737.69" y1="482.73" x2="738.47" y2="462.8"/><line class="cls-1" x1="741.96" y1="479.89" x2="742.71" y2="459.92"/><line class="cls-1" x1="746.24" y1="477.05" x2="746.94" y2="457.03"/><line class="cls-1" x1="750.51" y1="474.21" x2="751.18" y2="454.15"/><line class="cls-1" x1="754.79" y1="471.36" x2="755.42" y2="451.27"/><line class="cls-1" x1="759.06" y1="468.52" x2="759.66" y2="448.38"/><line class="cls-1" x1="763.33" y1="465.68" x2="763.9" y2="445.5"/><line class="cls-1" x1="767.61" y1="462.84" x2="768.14" y2="442.62"/><line class="cls-1" x1="771.88" y1="460" x2="772.38" y2="439.73"/><line class="cls-1" x1="776.15" y1="457.15" x2="776.61" y2="436.85"/><line class="cls-1" x1="780.43" y1="454.31" x2="780.85" y2="433.96"/><line class="cls-1" x1="784.7" y1="451.47" x2="785.09" y2="431.08"/><line class="cls-1" x1="788.98" y1="448.63" x2="789.33" y2="428.2"/><line class="cls-1" x1="793.25" y1="445.79" x2="793.57" y2="425.31"/><line class="cls-1" x1="797.52" y1="442.94" x2="797.81" y2="422.43"/><line class="cls-1" x1="801.8" y1="440.1" x2="802.05" y2="419.55"/><line class="cls-1" x1="806.07" y1="437.26" x2="806.28" y2="416.66"/><line class="cls-1" x1="810.34" y1="434.42" x2="810.52" y2="413.78"/><line class="cls-1" x1="814.62" y1="431.58" x2="814.76" y2="410.9"/><line class="cls-1" x1="818.89" y1="428.73" x2="819" y2="408.01"/><line class="cls-1" x1="823.16" y1="425.89" x2="823.24" y2="405.13"/><line class="cls-1" x1="827.44" y1="423.05" x2="827.48" y2="402.24"/><line class="cls-1" x1="831.71" y1="420.21" x2="831.72" y2="399.36"/><line class="cls-1" x1="835.99" y1="417.37" x2="835.95" y2="396.48"/><line class="cls-1" x1="840.26" y1="414.52" x2="840.19" y2="393.59"/><line class="cls-1" x1="844.53" y1="411.68" x2="844.43" y2="390.71"/><line class="cls-1" x1="848.81" y1="408.84" x2="848.67" y2="387.83"/><line class="cls-1" x1="853.08" y1="406" x2="852.91" y2="384.94"/><line class="cls-1" x1="857.35" y1="403.16" x2="857.15" y2="382.06"/><line class="cls-1" x1="861.63" y1="400.31" x2="861.39" y2="379.18"/><line class="cls-1" x1="865.9" y1="397.47" x2="865.62" y2="376.29"/><line class="cls-1" x1="870.18" y1="394.63" x2="869.86" y2="373.41"/><line class="cls-1" x1="874.45" y1="391.79" x2="874.1" y2="370.52"/><line class="cls-1" x1="878.72" y1="388.94" x2="878.34" y2="367.64"/><line class="cls-1" x1="883" y1="386.1" x2="882.58" y2="364.76"/><line class="cls-1" x1="887.27" y1="383.26" x2="886.82" y2="361.87"/><line class="cls-1" x1="891.54" y1="380.42" x2="891.06" y2="358.99"/><line class="cls-1" x1="895.82" y1="377.58" x2="895.29" y2="356.11"/><line class="cls-1" x1="900.09" y1="374.73" x2="899.53" y2="353.22"/><line class="cls-1" x1="904.37" y1="371.89" x2="903.77" y2="350.34"/><line class="cls-1" x1="908.64" y1="369.05" x2="908.01" y2="347.45"/><line class="cls-1" x1="912.91" y1="366.21" x2="912.25" y2="344.57"/><line class="cls-1" x1="917.19" y1="363.37" x2="916.49" y2="341.69"/><line class="cls-1" x1="921.46" y1="360.52" x2="920.73" y2="338.8"/><line class="cls-1" x1="925.73" y1="357.68" x2="924.96" y2="335.92"/><line class="cls-1" x1="930.01" y1="354.84" x2="929.2" y2="333.04"/><line class="cls-1" x1="934.28" y1="352" x2="933.44" y2="330.15"/><line class="cls-1" x1="938.55" y1="349.16" x2="937.68" y2="327.27"/><line class="cls-1" x1="942.83" y1="346.31" x2="941.92" y2="324.39"/><line class="cls-1" x1="947.1" y1="343.47" x2="946.16" y2="321.5"/><line class="cls-1" x1="951.38" y1="340.63" x2="950.4" y2="318.62"/><line class="cls-1" x1="955.65" y1="337.79" x2="954.64" y2="315.73"/><line class="cls-1" x1="959.92" y1="334.95" x2="958.87" y2="312.85"/><line class="cls-1" x1="964.2" y1="332.1" x2="963.11" y2="309.97"/><line class="cls-1" x1="968.47" y1="329.26" x2="967.35" y2="307.08"/><line class="cls-1" x1="972.74" y1="326.42" x2="971.59" y2="304.2"/><line class="cls-1" x1="977.02" y1="323.58" x2="975.83" y2="301.32"/><line class="cls-1" x1="981.29" y1="320.74" x2="980.07" y2="298.43"/><line class="cls-1" x1="985.57" y1="317.89" x2="984.31" y2="295.55"/><line class="cls-1" x1="989.84" y1="315.05" x2="988.54" y2="292.66"/><line class="cls-1" x1="994.11" y1="312.21" x2="992.78" y2="289.78"/><line class="cls-1" x1="998.39" y1="309.37" x2="997.02" y2="286.9"/><line class="cls-1" x1="1002.66" y1="306.53" x2="1001.26" y2="284.01"/><line class="cls-1" x1="1006.93" y1="303.68" x2="1005.5" y2="281.13"/><line class="cls-1" x1="1011.21" y1="300.84" x2="1009.74" y2="278.25"/><line class="cls-1" x1="1015.48" y1="298" x2="1013.98" y2="275.36"/><line class="cls-1" x1="1019.76" y1="295.16" x2="1018.21" y2="272.48"/><line class="cls-1" x1="1024.03" y1="292.32" x2="1022.45" y2="269.6"/><line class="cls-1" x1="1028.3" y1="289.47" x2="1026.69" y2="266.71"/><line class="cls-1" x1="1032.58" y1="286.63" x2="1030.93" y2="263.83"/><line class="cls-1" x1="1036.85" y1="283.79" x2="1035.17" y2="260.94"/><line class="cls-1" x1="1041.12" y1="280.95" x2="1039.41" y2="258.06"/><line class="cls-1" x1="1045.4" y1="278.11" x2="1043.65" y2="255.18"/><line class="cls-1" x1="1049.67" y1="275.26" x2="1047.88" y2="252.29"/><line class="cls-1" x1="1053.94" y1="272.42" x2="1052.12" y2="249.41"/><line class="cls-1" x1="1058.22" y1="269.58" x2="1056.36" y2="246.53"/><line class="cls-1" x1="1062.49" y1="266.74" x2="1060.6" y2="243.64"/><line class="cls-1" x1="1066.77" y1="263.9" x2="1064.84" y2="240.76"/><line class="cls-1" x1="1071.04" y1="261.05" x2="1069.08" y2="237.87"/><line class="cls-1" x1="1075.31" y1="258.21" x2="1073.32" y2="234.99"/><line class="cls-1" x1="1079.59" y1="255.37" x2="1077.55" y2="232.11"/><line class="cls-1" x1="1083.86" y1="252.53" x2="1081.79" y2="229.22"/><line class="cls-1" x1="1088.13" y1="249.69" x2="1086.03" y2="226.34"/><line class="cls-1" x1="1092.41" y1="246.84" x2="1090.27" y2="223.46"/><line class="cls-1" x1="1096.68" y1="244" x2="1094.51" y2="220.57"/><line class="cls-1" x1="1100.96" y1="241.16" x2="1098.75" y2="217.69"/><line class="cls-1" x1="1105.23" y1="238.32" x2="1102.99" y2="214.81"/><line class="cls-1" x1="1109.5" y1="235.48" x2="1107.22" y2="211.92"/><line class="cls-1" x1="1113.78" y1="232.63" x2="1111.46" y2="209.04"/><line class="cls-1" x1="1140.2" y1="215.6" x2="1140.78" y2="235.37"/><line class="cls-1" x1="1143.64" y1="220.61" x2="1144.28" y2="240.22"/><line class="cls-1" x1="1147.07" y1="225.62" x2="1147.78" y2="245.06"/><line class="cls-1" x1="1150.5" y1="230.63" x2="1151.28" y2="249.91"/><line class="cls-1" x1="1153.94" y1="235.64" x2="1154.78" y2="254.76"/><line class="cls-1" x1="1157.37" y1="240.65" x2="1158.28" y2="259.6"/><line class="cls-1" x1="1160.8" y1="245.66" x2="1161.78" y2="264.45"/><line class="cls-1" x1="1164.24" y1="250.67" x2="1165.27" y2="269.29"/><line class="cls-1" x1="1167.67" y1="255.68" x2="1168.77" y2="274.14"/><line class="cls-1" x1="1171.11" y1="260.69" x2="1172.27" y2="278.98"/><line class="cls-1" x1="1174.54" y1="265.7" x2="1175.77" y2="283.83"/><line class="cls-1" x1="1177.97" y1="270.71" x2="1179.27" y2="288.67"/><line class="cls-1" x1="1181.41" y1="275.72" x2="1182.77" y2="293.52"/><line class="cls-1" x1="1184.84" y1="280.73" x2="1186.26" y2="298.37"/><line class="cls-1" x1="1188.27" y1="285.74" x2="1189.76" y2="303.21"/><line class="cls-1" x1="1191.71" y1="290.75" x2="1193.26" y2="308.06"/><line class="cls-1" x1="1195.14" y1="295.76" x2="1196.76" y2="312.9"/><line class="cls-1" x1="1198.57" y1="300.77" x2="1200.26" y2="317.75"/><line class="cls-1" x1="1202.01" y1="305.79" x2="1203.76" y2="322.59"/><line class="cls-1" x1="1205.44" y1="310.8" x2="1207.26" y2="327.44"/><line class="cls-1" x1="1208.87" y1="315.81" x2="1210.75" y2="332.28"/><line class="cls-1" x1="1212.31" y1="320.82" x2="1214.25" y2="337.13"/><line class="cls-1" x1="869.38" y1="1331.04" x2="866.05" y2="1438.37"/><line class="cls-1" x1="890.97" y1="1331.61" x2="888.7" y2="1440.5"/><line class="cls-1" x1="912.55" y1="1332.18" x2="911.35" y2="1442.63"/><line class="cls-1" x1="934.14" y1="1332.75" x2="934" y2="1444.75"/><line class="cls-1" x1="955.73" y1="1333.32" x2="956.65" y2="1446.88"/><line class="cls-1" x1="977.32" y1="1333.9" x2="979.3" y2="1449.01"/><line class="cls-1" x1="998.9" y1="1334.47" x2="1001.95" y2="1451.13"/><line class="cls-1" x1="1020.49" y1="1335.04" x2="1024.6" y2="1453.26"/><line class="cls-1" x1="1042.08" y1="1335.61" x2="1047.25" y2="1455.39"/><line class="cls-1" x1="1063.67" y1="1336.18" x2="1069.9" y2="1457.51"/><line class="cls-1" x1="1085.25" y1="1336.75" x2="1092.55" y2="1459.64"/><line class="cls-1" x1="1106.84" y1="1337.32" x2="1115.21" y2="1461.77"/><line class="cls-1" x1="1128.43" y1="1337.9" x2="1137.86" y2="1463.9"/><line class="cls-1" x1="1150.01" y1="1338.47" x2="1160.51" y2="1466.02"/><line class="cls-1" x1="1171.6" y1="1339.04" x2="1183.16" y2="1468.15"/><line class="cls-1" x1="1193.19" y1="1339.61" x2="1205.81" y2="1470.28"/><line class="cls-1" x1="1214.78" y1="1340.18" x2="1228.46" y2="1472.4"/><line class="cls-1" x1="1236.36" y1="1340.75" x2="1251.11" y2="1474.53"/><line class="cls-1" x1="1257.95" y1="1341.32" x2="1273.76" y2="1476.66"/><line class="cls-1" x1="1279.54" y1="1341.9" x2="1296.41" y2="1478.78"/><line class="cls-1" x1="1301.13" y1="1342.47" x2="1319.06" y2="1480.91"/><line class="cls-1" x1="1322.71" y1="1343.04" x2="1341.71" y2="1483.04"/><line class="cls-1" x1="1464.32" y1="1360.37" x2="1484.05" y2="1471.49"/><line class="cls-1" x1="1446.63" y1="1358.49" x2="1466.66" y2="1474.08"/><line class="cls-1" x1="1428.95" y1="1356.6" x2="1449.27" y2="1476.67"/><line class="cls-1" x1="1411.26" y1="1354.71" x2="1431.88" y2="1479.26"/><line class="cls-1" x1="1393.58" y1="1352.82" x2="1414.49" y2="1481.86"/><line class="cls-1" x1="1375.9" y1="1350.93" x2="1397.1" y2="1484.45"/><line class="cls-1" x1="1358.21" y1="1349.04" x2="1379.71" y2="1487.04"/><polyline class="cls-1" points="854.05 1456.37 1372.71 1516.37 1496.05 1498.37"/><polyline class="cls-1" points="265.16 1379.23 394.71 1395.04 703.05 1401.04"/><line class="cls-1" x1="699.62" y1="1337.2" x2="694.21" y2="1390.14"/><line class="cls-1" x1="691.78" y1="1336.59" x2="686.11" y2="1389.82"/><line class="cls-1" x1="683.94" y1="1335.98" x2="678.01" y2="1389.51"/><line class="cls-1" x1="676.1" y1="1335.36" x2="669.91" y2="1389.2"/><line class="cls-1" x1="668.26" y1="1334.75" x2="661.81" y2="1388.89"/><line class="cls-1" x1="660.42" y1="1334.13" x2="653.71" y2="1388.58"/><line class="cls-1" x1="652.58" y1="1333.52" x2="645.61" y2="1388.27"/><line class="cls-1" x1="644.74" y1="1332.9" x2="637.51" y2="1387.96"/><line class="cls-1" x1="636.9" y1="1332.29" x2="629.41" y2="1387.64"/><line class="cls-1" x1="629.06" y1="1331.68" x2="621.31" y2="1387.33"/><line class="cls-1" x1="621.22" y1="1331.06" x2="613.21" y2="1387.02"/><line class="cls-1" x1="613.38" y1="1330.45" x2="605.11" y2="1386.71"/><line class="cls-1" x1="605.54" y1="1329.83" x2="597.01" y2="1386.4"/><line class="cls-1" x1="597.7" y1="1329.22" x2="588.91" y2="1386.09"/><line class="cls-1" x1="589.86" y1="1328.6" x2="580.81" y2="1385.78"/><line class="cls-1" x1="582.02" y1="1327.99" x2="572.71" y2="1385.46"/><line class="cls-1" x1="574.18" y1="1327.38" x2="564.61" y2="1385.15"/><line class="cls-1" x1="566.34" y1="1326.76" x2="556.51" y2="1384.84"/><line class="cls-1" x1="558.5" y1="1326.15" x2="548.41" y2="1384.53"/><line class="cls-1" x1="550.66" y1="1325.53" x2="540.31" y2="1384.22"/><line class="cls-1" x1="542.82" y1="1324.92" x2="532.21" y2="1383.91"/><line class="cls-1" x1="534.98" y1="1324.3" x2="524.11" y2="1383.6"/><line class="cls-1" x1="527.14" y1="1323.69" x2="516.01" y2="1383.28"/><line class="cls-1" x1="519.3" y1="1323.08" x2="507.91" y2="1382.97"/><line class="cls-1" x1="511.46" y1="1322.46" x2="499.81" y2="1382.66"/><line class="cls-1" x1="503.62" y1="1321.85" x2="491.71" y2="1382.35"/><line class="cls-1" x1="495.78" y1="1321.23" x2="483.61" y2="1382.04"/><line class="cls-1" x1="487.93" y1="1320.62" x2="475.51" y2="1381.73"/><line class="cls-1" x1="480.09" y1="1320" x2="467.41" y2="1381.42"/><line class="cls-1" x1="472.25" y1="1319.39" x2="459.31" y2="1381.1"/><line class="cls-1" x1="464.41" y1="1318.78" x2="451.21" y2="1380.79"/><line class="cls-1" x1="456.57" y1="1318.16" x2="443.11" y2="1380.48"/><line class="cls-1" x1="448.73" y1="1317.55" x2="435.01" y2="1380.17"/><line class="cls-1" x1="440.89" y1="1316.93" x2="426.91" y2="1379.86"/><line class="cls-1" x1="433.05" y1="1316.32" x2="418.81" y2="1379.55"/><line class="cls-1" x1="425.21" y1="1315.7" x2="410.71" y2="1379.23"/><line class="cls-1" x1="406.21" y1="1315.7" x2="392.71" y2="1379.23"/><line class="cls-1" x1="400.64" y1="1315.39" x2="387.02" y2="1378.49"/><line class="cls-1" x1="395.07" y1="1315.07" x2="381.33" y2="1377.75"/><line class="cls-1" x1="389.5" y1="1314.75" x2="375.64" y2="1377.01"/><line class="cls-1" x1="383.93" y1="1314.43" x2="369.95" y2="1376.27"/><line class="cls-1" x1="378.36" y1="1314.12" x2="364.26" y2="1375.53"/><line class="cls-1" x1="372.78" y1="1313.8" x2="358.57" y2="1374.79"/><line class="cls-1" x1="367.21" y1="1313.48" x2="352.88" y2="1374.05"/><line class="cls-1" x1="361.64" y1="1313.17" x2="347.19" y2="1373.31"/><line class="cls-1" x1="356.07" y1="1312.85" x2="341.5" y2="1372.56"/><line class="cls-1" x1="350.5" y1="1312.53" x2="335.81" y2="1371.82"/><line class="cls-1" x1="344.93" y1="1312.21" x2="330.12" y2="1371.08"/><line class="cls-1" x1="339.36" y1="1311.9" x2="324.43" y2="1370.34"/><line class="cls-1" x1="333.78" y1="1311.58" x2="318.74" y2="1369.6"/><line class="cls-1" x1="328.21" y1="1311.26" x2="313.05" y2="1368.86"/><line class="cls-1" x1="322.64" y1="1310.94" x2="307.36" y2="1368.12"/><line class="cls-1" x1="317.07" y1="1310.63" x2="301.67" y2="1367.38"/><line class="cls-1" x1="311.5" y1="1310.31" x2="295.98" y2="1366.64"/><line class="cls-1" x1="305.93" y1="1309.99" x2="290.28" y2="1365.89"/><line class="cls-1" x1="300.36" y1="1309.67" x2="284.59" y2="1365.15"/><line class="cls-1" x1="294.78" y1="1309.36" x2="278.9" y2="1364.41"/><line class="cls-1" x1="289.21" y1="1309.04" x2="273.21" y2="1363.67"/><line class="cls-1" x1="160.72" y1="1301.87" x2="145.71" y2="1350.45"/><line class="cls-1" x1="155.15" y1="1300.85" x2="140.07" y2="1349.15"/><line class="cls-1" x1="149.58" y1="1299.83" x2="134.43" y2="1347.84"/><line class="cls-1" x1="144.01" y1="1298.81" x2="128.78" y2="1346.54"/><line class="cls-1" x1="138.44" y1="1297.79" x2="123.14" y2="1345.23"/><line class="cls-1" x1="132.87" y1="1296.77" x2="117.5" y2="1343.93"/><line class="cls-1" x1="127.29" y1="1295.75" x2="111.86" y2="1342.62"/><line class="cls-1" x1="121.72" y1="1294.73" x2="106.21" y2="1341.32"/><line class="cls-1" x1="116.15" y1="1293.71" x2="100.57" y2="1340.01"/><line class="cls-1" x1="110.58" y1="1292.69" x2="94.93" y2="1338.7"/><line class="cls-1" x1="105.01" y1="1291.67" x2="89.28" y2="1337.4"/><line class="cls-1" x1="99.44" y1="1290.65" x2="83.64" y2="1336.09"/><line class="cls-1" x1="93.87" y1="1289.62" x2="78" y2="1334.79"/><line class="cls-1" x1="88.29" y1="1288.6" x2="72.36" y2="1333.48"/><line class="cls-1" x1="82.72" y1="1287.58" x2="66.71" y2="1332.18"/><line class="cls-1" x1="77.15" y1="1286.56" x2="61.07" y2="1330.87"/><line class="cls-1" x1="71.58" y1="1285.54" x2="55.43" y2="1329.57"/><line class="cls-1" x1="66.01" y1="1284.52" x2="49.78" y2="1328.26"/><line class="cls-1" x1="60.44" y1="1283.5" x2="44.14" y2="1326.95"/><line class="cls-1" x1="54.87" y1="1282.48" x2="38.5" y2="1325.65"/><line class="cls-1" x1="49.29" y1="1281.46" x2="32.86" y2="1324.34"/><line class="cls-1" x1="43.72" y1="1280.44" x2="27.21" y2="1323.04"/><path class="cls-1" d="M852.71,675.2s16,4.78,20.31,13.15"/><polyline class="cls-1" points="486.05 572.71 1115.55 103.04 1204.25 232.63 1217.71 295.72"/><polyline class="cls-1" points="1548.71 25.2 1210.05 234.21 1217.71 241.71 1220.38 264.7 1224.21 264.7 1226.44 277.2 1556.21 88.2 1553.21 86.7 1226.44 273.2 1225.19 270.21 1548.71 82.7"/><path class="cls-1" d="M1226.44,277.2l96.27,436s-2,5,0,8.5,5.5,10.5,6,14.5,3,11.5,5,12,2.5,10,2.5,10l3.5,3.5s.5,15.5,3,16l5.5,28.5,2.5,3.5s3,14.5,5.5,17.5-2,9.5,0,12.5l2,3,94.5,409.5s-.5,9.5,2.5,12,0,39.5,0,39.5l73.5,2.24s14.5-4.74,0-16.74-25-17-25.5-20,3-5.5,3-5.5,0-5-4-6l-95.5-387.5,3-1.5-2.5-19s3.5-4-4-11.5-1.16-4.5-.33-7.83,1.33-6.67,1.33-6.67,8-23.16-53.5-14"/><path class="cls-1" d="M1348.21,806.2s65.16-12.28,61.08,12.36"/><path class="cls-1" d="M1398.87,780.73s5.68-7-7-12.86-51.77,0-51.77,0"/><polyline class="cls-1" points="1336.21 758.21 1386.38 744.21 1418.55 780.73 1404.59 785.71"/><polyline class="cls-1" points="1418.55 780.73 1417.71 774.04 1386.55 734.21 1334.81 749.6"/><line class="cls-1" x1="1386.38" y1="744.2" x2="1386.55" y2="734.2"/><polyline class="cls-1" points="1417.71 774.04 1422.21 769.71 1386.55 728.71 1330.93 744.21"/><path class="cls-1" d="M1322.71,713.2l70.17-19.66,45,55.83V753s-9.33,2.33-10.5,8.83-.33,6.83-5.17,7.83"/><polyline class="cls-1" points="1323.19 722.55 1391.88 701.71 1437.88 753.04"/><path class="cls-1" d="M1392.88,693.54l-1,8.16a22.3,22.3,0,0,0-3.17,17.34c2.34,10-2.16,9.66-2.16,9.66"/><path class="cls-1" d="M1358.21,842.7s38.17-6.33,49,7"/><path class="cls-1" d="M1360,850.47s11.69-3.93,16.45,11.73h7.92s-4-11.5,5.17-14c0,0,8.16,1.5,9.5,14l6,2s-2.34-11.33,2.16-9.5"/><line class="cls-1" x1="1455.21" y1="1264.2" x2="1504.13" y2="1265.87"/><line class="cls-1" x1="1452.93" y1="1258.09" x2="1502.21" y2="1257.7"/><path class="cls-1" d="M1456.19,1287s61.52,3.34,72.52,2.17"/><line class="cls-1" x1="1455.21" y1="1303.7" x2="1545.71" y2="1307.37"/><path class="cls-1" d="M1519.48,1282l-115.4-457.48c3.86-.16,9.63-7.5,3.3-33s-64.67-13.87-64.67-13.87"/><path class="cls-1" d="M1386.55,695.31l-25.5-90.94s-22.67-49,47-121,88.66-90,88.66-90l69-7.67"/><path class="cls-1" d="M1548.71,435.7,1519.05,440s-69,63.66-94.67,96.33-49.33,44-31.5,104.67,25.67,84.34,25.67,84.34"/><path class="cls-1" d="M1552.05,368s-41.67,0-63,8.66c0,0-109.38,97.67-131.53,142.67,0,0-30.81,30.64-5.14,124l14.46,57.47"/><line class="cls-1" x1="1217.71" y1="241.7" x2="1550.71" y2="40.95"/><polyline class="cls-1" points="472.97 684.42 381.71 742.04 384.05 747.71 381.71 758.93 468.87 704.65"/><line class="cls-1" x1="384.05" y1="747.7" x2="471.43" y2="691.99"/><path class="cls-1" d="M381.71,758.93l2.34,2.44L293.71,1045.7l7-2,16.67-56.33s17.67-69.5,68.67-111.42c0,0,26,8.75,20.66,63.09l-19,73.33-4.33,2L402.05,947s13.4-37-17.67-61.67c2.68.58-38.93,9.85-79.67,159.33"/><path class="cls-1" d="M288.05,1047.7l12.66-4,54,12.34-3.64,1.66s-6,7-10,8l-5.67,6.67L299.05,1063l-8,2.33,1.5-6.17s-1.84-.33-1.67-8.16Z"/><polyline class="cls-1" points="292.55 1059.2 300.71 1056.7 341.05 1065.7"/><path class="cls-1" d="M300.71,1043.7s-2.16.67-.83,5c0,0-2.33,3.5.83,8l-1.66,6.34"/><path class="cls-1" d="M462.34,869.61S422.05,908.37,401.71,1010l9.67,3s15.67-92.71,44-116.86"/><polyline class="cls-1" points="423.8 1016.82 396.71 1009.71 366.38 1021.04 366.38 1023.37 395.09 1013.04 422.71 1020.98"/><path class="cls-1" d="M344.7,1053.75S366.3,959.2,404,922.29"/><path class="cls-1" d="M293.71,1064.59s-2.75,7.2,0,7.78,28.75,3.08,32.25,6.58,8.79-6.74,7.1-7.18"/><path class="cls-1" d="M292.55,1070.86l-4.5,16.34s28.25,1,33.33,8l6.08-15.52"/><path class="cls-1" d="M289.24,1087.26a12.77,12.77,0,0,0,0,7.94c1.47,3.75-4.53,5.75-4.53,5.75s22,2.75,28.23,7.25c0,0-.23-5.75,1.52-7s6.8-6.69,5.12-7.67"/><path class="cls-1" d="M286.25,1101.16l-1.54,10h3.34s1-5.54,4.44-5a4.56,4.56,0,0,1,2.22,5l3.25,1.5s1.71-5,4.36-4.5c0,0,3.14.25,1.14,6l6,2.5,3.48-8.5"/><polyline class="cls-1" points="284.71 1111.2 234.71 1272.2 262.21 1274.45 309.46 1116.7"/><path class="cls-1" d="M234.71,1272.2s-1.5,9.09-6.5,10.17-3.75,6.58-3.75,6.58l38.5,3a5,5,0,0,0,1-6.91c-2.75-4.09-1.75-10.59-1.75-10.59"/><path class="cls-1" d="M229,1289.76c-3.16,3.16-1,7.41-1,7.41l48,4.53c6.75-1,4-7.25,4-7.25l-62.5-5.75s-5,5.69-1.25,8.47H228"/><polyline class="cls-1" points="229.28 1297.3 211.96 1352.45 199.71 1350.45 216.21 1297.17 177.71 1297.17 36.24 1272.45"/><path class="cls-1" d="M276,1301.7l-15.5,54-48.5-3.25s-3.75,4-4.5,7.75a3.87,3.87,0,0,1-4,3.47l-3.75,7.27-2.5,10,65.75,1.46"/><path class="cls-1" d="M260.46,1355.7h2.25s-3,8,4.75,10.5l-62-3"/><path class="cls-1" d="M197.21,1381l-13-3.75,2.5-8.27,6.75-8a27.8,27.8,0,0,1,6.25-10.5"/><polyline class="cls-1" points="267.46 1366.2 267.1 1373.67 199.71 1370.94 186.71 1368.93 150.21 1366.67 9.34 1334.04"/><path class="cls-1" d="M367.46,1023.37s4.75-.17,5.25,4.58,1.64,4,1.64,4l1.61,3-1.61,3.64,11.36,3.64"/><polyline class="cls-1" points="374.36 1038.57 397.21 1032.79 418.11 1038.57"/><polyline class="cls-1" points="374.36 1031.95 397.96 1025.2 420.21 1030.53"/><path class="cls-1" d="M395.09,1013s2.66,5.16,1.14,7.16,1.73,5,1.73,5,2.75,5.18-.75,7.59"/><path class="cls-1" d="M385.71,1045.7s-3.39-17.77,31.68-4.38"/><path class="cls-1" d="M415.72,1047.7s-25.26-6.5-33.26,1l-3,14.34s19.34-5.34,31.55,2.66"/><path class="cls-1" d="M382.21,1063s-4.5,8.16-1.25,13.41"/><path class="cls-1" d="M407.43,1079.35s-16.47-5.9-28-2.9c0,0-3,3.75,0,5,0,0,3.27-5.59,27,1.58"/><path class="cls-1" d="M379.46,1081.45l-2.87,9h4.12s.21-6.37,4.5-7c0,0,2.13-.41,2.71,6.63l4.63.67s-.34-6.38,4.83-6.13c0,0,4.46.21,2.08,6.88l4.39,1.53"/><path class="cls-1" d="M376.59,1090.45,330.21,1272.2s-2,9.54-6,10.17"/><line class="cls-1" x1="330.21" y1="1272.2" x2="356.37" y2="1274.45"/><polyline class="cls-1" points="398.99 731.13 367.46 719.85 265.71 712.04 225.71 745.71 218.71 761.21 257.71 729.71 363.21 736.21 381.71 742.04"/><polyline class="cls-1" points="218.71 761.21 221.71 765.21 259.21 739.12 362.21 747.71 383.12 752.16"/><polyline class="cls-1" points="209.21 797.71 247.71 771.46 349.4 777.46 374.36 791.88"/><polyline class="cls-1" points="367.21 816.5 341.94 802.67 239.85 796.4 200.74 821.01"/><polyline class="cls-1" points="360.06 841.12 334.48 827.88 231.98 821.35 192.27 844.31"/><polyline class="cls-1" points="352.92 865.74 327.02 853.1 224.11 846.3 183.79 867.61"/><polyline class="cls-1" points="345.78 890.36 319.56 878.32 216.25 871.25 175.32 890.91"/><polyline class="cls-1" points="223.41 897.26 208.38 896.2 166.84 914.21"/><polyline class="cls-1" points="338.63 914.98 312.1 903.53 284.98 901.54"/><polyline class="cls-1" points="213.75 922.12 200.51 921.15 158.37 937.51"/><polyline class="cls-1" points="331.49 939.6 304.64 928.75 276.21 926.53"/><polyline class="cls-1" points="204.25 947.05 192.65 946.1 149.9 960.82"/><polyline class="cls-1" points="324.34 964.22 297.18 953.96 266.73 951.52"/><polyline class="cls-1" points="194.25 971.94 184.78 971.05 141.42 984.12"/><polyline class="cls-1" points="317.2 988.84 289.72 979.18 257.25 976.51"/><polyline class="cls-1" points="310.05 1013.46 282.26 1004.39 176.91 996 132.95 1007.42"/><polyline class="cls-1" points="302.91 1038.09 274.8 1029.61 169.04 1020.95 124.48 1030.72"/><polyline class="cls-1" points="295.76 1062.7 267.33 1054.82 161.18 1045.9 116 1054.02"/><polyline class="cls-1" points="288.62 1087.33 259.87 1080.04 153.31 1070.85 107.53 1077.32"/><polyline class="cls-1" points="281.47 1111.95 252.41 1105.25 145.44 1095.79 99.06 1100.63"/><polyline class="cls-1" points="274.33 1136.57 244.95 1130.47 137.58 1120.74 90.58 1123.93"/><polyline class="cls-1" points="267.18 1161.19 237.49 1155.68 129.71 1145.69 82.11 1147.23"/><polyline class="cls-1" points="260.04 1185.81 230.03 1180.9 121.84 1170.64 73.63 1170.53"/><polyline class="cls-1" points="252.9 1210.43 222.57 1206.11 113.98 1195.59 65.16 1193.83"/><polyline class="cls-1" points="245.75 1235.05 215.11 1231.33 106.11 1220.54 56.69 1217.13"/><line class="cls-1" x1="238.61" y1="1259.67" x2="48.21" y2="1240.44"/><line class="cls-1" x1="221.71" y1="765.2" x2="207.35" y2="802.79"/><polyline class="cls-1" points="217.46 1288.7 177.71 1288.7 39.61 1265.67"/><line class="cls-1" x1="16.6" y1="1326.87" x2="209.21" y2="797.7"/><polyline class="cls-1" points="184.21 1377.2 147.71 1374.2 10.71 1343.04"/><path class="cls-1" d="M177.71,1288.7s-29,85-30,85.5"/><line class="cls-1" x1="265.16" y1="1312.45" x2="254.71" y2="1347.47"/><line class="cls-1" x1="258.67" y1="1311.77" x2="248.05" y2="1346.92"/><line class="cls-1" x1="252.18" y1="1311.09" x2="241.38" y2="1346.36"/><line class="cls-1" x1="245.69" y1="1310.4" x2="234.71" y2="1345.81"/><line class="cls-1" x1="239.2" y1="1309.72" x2="228.05" y2="1345.26"/><line class="cls-1" x1="232.71" y1="1309.04" x2="221.38" y2="1344.7"/><line class="cls-1" x1="192.55" y1="1353.86" x2="206.46" y2="1307.37"/><line class="cls-1" x1="186.58" y1="1353.58" x2="201.11" y2="1307.04"/><line class="cls-1" x1="180.61" y1="1353.29" x2="195.76" y2="1306.7"/><line class="cls-1" x1="174.65" y1="1353.01" x2="190.41" y2="1306.37"/><line class="cls-1" x1="168.68" y1="1352.73" x2="185.06" y2="1306.04"/><line class="cls-1" x1="162.71" y1="1352.45" x2="179.71" y2="1305.7"/><path class="cls-1" d="M203.46,1363.67l-10-2.72L154,1357.46,16.6,1326.87a15.33,15.33,0,0,0-7,6c-2.84,4.5-5.17,7.5-8.5,7.33s9.66,2.84,9.66,2.84"/><polygon class="cls-1" points="231.21 877.21 292.49 881.46 253.96 985.21 190.96 980.71 204.09 946.96 231.21 877.21"/><polygon class="cls-1" points="237.46 885.46 204.21 972.71 249.71 977.46 282.46 888.71 237.46 885.46"/><polyline class="cls-1" points="237.46 885.46 246.21 894.21 279.23 897.46 246.21 894.21 216.21 973.96"/></g></g></svg>